<svg width="27" height="30" viewBox="0 0 27 30" fill="none" xmlns="http://www.w3.org/2000/svg">
<g id="fontisto:truck" clip-path="url(#clip0_23_331)">
<path id="Vector" d="M13.0615 0C8.51147 0 4.67396 0.25125 4.10146 0.585C3.10146 0.92625 2.34896 3.1975 2.34646 5.8925V7.23125H2.07396C2.04666 7.16942 2.00951 7.11243 1.96396 7.0625C2.08161 6.92635 2.14638 6.75244 2.14646 6.5725V5.8925C2.16237 5.73342 2.11545 5.57443 2.01572 5.44947C1.91599 5.32452 1.77136 5.24351 1.61271 5.22375H0.540215C0.380383 5.24319 0.234635 5.32479 0.134509 5.45088C0.0343842 5.57697 -0.0120644 5.73742 0.00521484 5.8975V5.895V6.575C0.00521484 6.7625 0.0739648 6.935 0.187715 7.06625L0.186465 7.065C0.0688216 7.20115 0.00404899 7.37506 0.00396484 7.555V10.9125C0.00229818 10.9317 0.00146484 10.9517 0.00146484 10.9725C0.00146484 11.285 0.235215 11.5438 0.537715 11.5813H1.61146C1.71202 11.5761 1.80896 11.5421 1.89074 11.4834C1.97252 11.4246 2.03569 11.3436 2.07271 11.25L2.07396 11.2463H2.34646V17.2738C2.34646 17.5125 2.60272 17.7337 3.01647 17.8525V18.635C2.42522 18.7113 2.01646 18.9775 2.01646 19.2825V25.9825C1.97425 26.8128 2.21291 27.6332 2.69396 28.3113L2.68646 28.3V29.4513C2.68646 29.755 2.93271 30.0012 3.23646 30.0012H5.48396C5.62983 30.0012 5.76973 29.9433 5.87287 29.8402C5.97602 29.737 6.03397 29.5971 6.03397 29.4513V28.6625H20.0927V29.4513C20.0927 29.755 20.339 30.0012 20.6427 30.0012H22.8902C22.9624 30.0012 23.034 29.987 23.1007 29.9594C23.1674 29.9317 23.2281 29.8912 23.2791 29.8402C23.3302 29.7891 23.3707 29.7285 23.3983 29.6617C23.426 29.595 23.4402 29.5235 23.4402 29.4513V28.3013C23.9178 27.6232 24.1538 26.8044 24.1102 25.9762V25.985V19.285C24.1102 18.98 23.6965 18.7137 23.1102 18.6375V17.855C23.524 17.7362 23.779 17.515 23.7802 17.2763V11.2513H24.0527C24.1277 11.4413 24.3052 11.575 24.514 11.5863H25.5827C25.7425 11.5668 25.8883 11.4852 25.9884 11.3591C26.0885 11.233 26.135 11.0726 26.1177 10.9125V10.915V7.5575C26.1179 7.37713 26.0531 7.20273 25.9352 7.06625L25.9365 7.0675C26.0541 6.93135 26.1189 6.75744 26.119 6.5775V5.9C26.1349 5.74092 26.088 5.58193 25.9882 5.45697C25.8885 5.33202 25.7439 5.25101 25.5852 5.23125H24.5115C24.3516 5.25069 24.2059 5.33229 24.1058 5.45838C24.0056 5.58447 23.9592 5.74492 23.9765 5.905V5.9025V6.5825C23.9765 6.77 24.0452 6.9425 24.159 7.07375L24.1577 7.0725C24.1144 7.12208 24.0779 7.17713 24.049 7.23625L24.0477 7.24H23.7752V5.895C23.7752 3.18625 23.0152 0.905 22.0077 0.58125C21.3952 0.24875 17.5765 0.0025 13.0615 0.0025V0ZM3.87647 3.88375H22.2452C22.569 3.88375 22.839 4.11375 22.9015 4.42L22.9027 4.42375C23.0302 5.06125 23.1027 5.795 23.1027 6.54625V6.59375V6.59125V11.25C23.1027 11.62 22.8027 11.92 22.4327 11.92H3.68646C3.50877 11.92 3.33835 11.8494 3.2127 11.7238C3.08705 11.5981 3.01647 11.4277 3.01647 11.25V6.5475C3.0173 5.795 3.08771 5.06333 3.22772 4.3525L3.21646 4.42375C3.24657 4.27153 3.32858 4.13447 3.4485 4.03599C3.56841 3.9375 3.71879 3.8837 3.87396 3.88375H3.87647ZM4.69022 18.6162H6.12522C6.30397 18.6162 6.44896 18.7563 6.45896 18.9325V18.9338L6.69771 23.2862V23.3037C6.69771 23.4888 6.54772 23.6387 6.36272 23.6387H4.69022C4.60157 23.6381 4.51674 23.6026 4.45406 23.5399C4.39137 23.4772 4.35587 23.3924 4.35522 23.3037V18.9513C4.35522 18.7663 4.50522 18.6162 4.69022 18.6162ZM19.9965 18.6162H21.4315C21.6165 18.6162 21.7665 18.7663 21.7665 18.9513V23.3C21.7665 23.485 21.6165 23.635 21.4315 23.635H19.7577C19.6691 23.6343 19.5842 23.5988 19.5216 23.5362C19.4589 23.4735 19.4234 23.3886 19.4227 23.3V23.2812L19.6615 18.93C19.674 18.755 19.819 18.6175 19.9952 18.6175L19.9965 18.6162ZM7.53646 19.4163H18.5865C18.679 19.4163 18.754 19.4912 18.754 19.5837V19.7837C18.754 19.8762 18.679 19.9513 18.5865 19.9513H7.53646C7.49204 19.9513 7.44944 19.9336 7.41802 19.9022C7.38661 19.8708 7.36896 19.8282 7.36897 19.7837V19.5837C7.36897 19.4912 7.44396 19.4163 7.53646 19.4163ZM7.60271 20.6213H18.519C18.6115 20.6213 18.6865 20.6963 18.6865 20.7887V20.9888C18.6865 21.0813 18.6115 21.1562 18.519 21.1562H7.60271C7.55829 21.1562 7.51569 21.1386 7.48427 21.1072C7.45286 21.0758 7.43521 21.0332 7.43521 20.9888V20.7887C7.43521 20.6963 7.51021 20.6213 7.60271 20.6213ZM7.67022 21.8263H18.4527C18.5452 21.8263 18.6202 21.9012 18.6202 21.9937V22.1937C18.6202 22.2862 18.5452 22.3612 18.4527 22.3612H7.67022C7.62718 22.3613 7.58582 22.3446 7.55481 22.3148C7.52381 22.2849 7.50558 22.2442 7.50396 22.2013V22.0012C7.50396 21.9088 7.57897 21.8337 7.67146 21.8337L7.67022 21.8263ZM7.73771 23.0312H18.3852C18.4777 23.0312 18.5527 23.1063 18.5527 23.1987V23.3988C18.5527 23.4912 18.4777 23.5662 18.3852 23.5662H7.73771C7.69329 23.5662 7.65069 23.5486 7.61927 23.5172C7.58786 23.4858 7.57022 23.4432 7.57022 23.3988V23.1987C7.57022 23.1063 7.64522 23.0312 7.73771 23.0312Z" fill="#121212"/>
</g>
<defs>
<clipPath id="clip0_23_331">
<rect width="26.25" height="30" fill="white"/>
</clipPath>
</defs>
</svg>
